<svg width="20" height="20" viewBox="0 0 20 20"  xmlns="http://www.w3.org/2000/svg">
<path d="M15 10.8334H10.8333V15.0001C10.8333 15.4584 10.4583 15.8334 9.99999 15.8334C9.54166 15.8334 9.16666 15.4584 9.16666 15.0001V10.8334H4.99999C4.54166 10.8334 4.16666 10.4584 4.16666 10.0001C4.16666 9.54175 4.54166 9.16675 4.99999 9.16675H9.16666V5.00008C9.16666 4.54175 9.54166 4.16675 9.99999 4.16675C10.4583 4.16675 10.8333 4.54175 10.8333 5.00008V9.16675H15C15.4583 9.16675 15.8333 9.54175 15.8333 10.0001C15.8333 10.4584 15.4583 10.8334 15 10.8334Z" />
</svg>
